<svg width="24" height="24" viewBox="0 0 24 24" fill="none" xmlns="http://www.w3.org/2000/svg">
<path d="M12 1V3" stroke="currentColor" stroke-width="2" stroke-linecap="round" stroke-linejoin="round"/>
<path d="M12 21V23" stroke="currentColor" stroke-width="2" stroke-linecap="round" stroke-linejoin="round"/>
<path d="M4.20001 4.20001L5.60001 5.60001" stroke="currentColor" stroke-width="2" stroke-linecap="round" stroke-linejoin="round"/>
<path d="M18.4 18.4L19.8 19.8" stroke="currentColor" stroke-width="2" stroke-linecap="round" stroke-linejoin="round"/>
<path d="M1 12H3" stroke="currentColor" stroke-width="2" stroke-linecap="round" stroke-linejoin="round"/>
<path d="M21 12H23" stroke="currentColor" stroke-width="2" stroke-linecap="round" stroke-linejoin="round"/>
<path d="M7.62896 13.471C7.91876 13.1812 8.01036 12.7558 7.96702 12.3483C7.84701 11.2197 8.26367 10.02 9.10001 9.1C9.95378 8.24622 11.172 7.82981 12.3813 7.97522C12.7684 8.02176 13.171 7.929 13.4467 7.65329C13.9649 7.13511 13.8137 6.26259 13.096 6.11482C11.2019 5.72489 9.13374 6.28661 7.70001 7.8C6.29671 9.2033 5.74432 11.2144 6.04284 13.0751C6.16521 13.8379 7.08271 14.0173 7.62896 13.471Z" fill="currentColor"/>
<path d="M16.371 10.529C16.0813 10.8188 15.9896 11.2442 16.033 11.6518C16.153 12.7803 15.7363 13.9801 14.9 14.9C14.0462 15.7538 12.828 16.1702 11.6187 16.0248C11.2316 15.9783 10.829 16.071 10.5533 16.3467C10.0351 16.8649 10.1863 17.7374 10.904 17.8852C12.7981 18.2751 14.8663 17.7134 16.3 16.2C17.7033 14.7967 18.2557 12.7856 17.9572 10.9249C17.8348 10.1621 16.9173 9.98273 16.371 10.529Z" fill="currentColor"/>
<path d="M23.7 0.3C24.1 0.7 24.1 1.3 23.7 1.7L1.7 23.7C1.3 24.1 0.7 24.1 0.3 23.7C-0.1 23.3 -0.1 22.7 0.3 22.3L22.3 0.3C22.7 -0.1 23.3 -0.1 23.7 0.3Z" fill="currentColor"/>
</svg>
