<svg width="22" height="22" viewBox="0 0 22 22" fill="none" xmlns="http://www.w3.org/2000/svg">
    <mask id="path-1-outside-1" maskUnits="userSpaceOnUse" x="-0.5" y="-0.5" width="23" height="23" fill="black">
        <rect fill="currentColor" x="-0.5" y="-0.5" width="23" height="23"/>
        <path fill-rule="evenodd" clip-rule="evenodd"
              d="M18.1201 3.8268L20.0001 5.97023V6.99324L18.7966 6.38512C18.7375 6.35525 18.6764 6.32933 18.6139 6.30753L16.0988 5.43067C15.9379 5.37458 15.771 5.34703 15.605 5.34705V2.00001L18.1201 3.8268ZM13.9542 6.91001H8.06018V10.2185H13.9542V6.91001ZM6.39511 10.2161V6.95428L4.5457 7.48684L4.4828 7.5086L2.5 8.5C2.28672 8.58171 2.12443 8.66229 2 8.7388V9.9021C2.04386 9.9021 2.08788 9.90403 2.13195 9.90792L4.0412 10.0765L6.39511 10.2161ZM0.554871 11.0001C0.518789 10.8704 0.5 10.7353 0.5 10.5981V8.67385C0.5 8.53599 0.518899 8.401 0.554791 8.27196C0.518892 8.14289 0.5 8.0079 0.5 7.87009V5.97023C0.5 5.60521 0.633102 5.25271 0.874366 4.97879L2.80517 2.78664C2.87916 2.70263 2.96233 2.62717 3.05312 2.56166L5.51743 0.783588C5.79276 0.584931 6.12118 0.489338 6.44847 0.500943C6.46485 0.500316 6.48201 0.5 6.49998 0.5H15.4542C15.4803 0.5 15.5048 0.500667 15.5277 0.501984C15.8644 0.484651 16.2037 0.580989 16.4865 0.786354L19.0016 2.61314C19.0918 2.67862 19.1743 2.75394 19.2478 2.8377L21.1278 4.98113C21.3678 5.25475 21.5001 5.60628 21.5001 5.97023V7.87009C21.5001 8.0079 21.4812 8.1429 21.4453 8.27197C21.4812 8.40101 21.5001 8.536 21.5001 8.67385V10.5981C21.5001 10.7353 21.4813 10.8704 21.4452 11.0001C21.4813 11.1298 21.5001 11.2649 21.5001 11.4021V13.302C21.5001 13.4441 21.48 13.5832 21.4419 13.7159C21.48 13.8486 21.5001 13.9877 21.5001 14.1299V16.0054C21.5001 16.367 21.3694 16.7165 21.1322 16.9894L19.2268 19.1816C19.1517 19.2679 19.067 19.3454 18.9743 19.4126L16.4846 21.215C16.1428 21.416 15.756 21.5211 15.3816 21.4757H7.00001C6.95889 21.4757 6.92076 21.474 6.88544 21.4708C6.32031 21.4905 5.76557 21.398 5.50958 21.2107L3.04527 19.4083C2.95752 19.3441 2.87702 19.2706 2.80517 19.189L0.874366 16.9969C0.633102 16.723 0.5 16.3705 0.5 16.0055V14.1056C0.5 13.9678 0.518888 13.8328 0.554774 13.7038C0.518889 13.5747 0.5 13.4398 0.5 13.302V11.4021C0.5 11.2649 0.518789 11.1298 0.554871 11.0001ZM6.39511 14.9838L5 14.5L3.88533 14.2771L2 13.302V12.0981C2.04386 12.0981 2.08788 12.0961 2.13194 12.0923L4.04119 11.9237L6.39511 11.7841V14.9838ZM2 14.9907V16.0055L3.9308 18.1976L6.39511 20V16.6288C6.23465 16.6288 6.07329 16.603 5.91729 16.5506L3.45298 15.7225C3.38037 15.6981 3.30973 15.6681 3.24169 15.6329L2 14.9907ZM2 5.97023V6.9937L3.25505 6.36039C3.31501 6.33014 3.37694 6.30394 3.44041 6.28199L5.90472 5.42948C6.06456 5.37419 6.23029 5.34703 6.39511 5.34705V2.00001L3.9308 3.77808L2 5.97023ZM8.06018 16.6285H13.9542V19.9757H8.06018V16.6285ZM13.9542 15.0657V11.7571H8.06018V15.0657H13.9542ZM8.06018 2V5.34705H13.9542V2H8.06018ZM15.605 6.95429V10.2179L17.9605 10.1377L20.0001 10.1376L20.0001 10.1376V8.98273C19.9641 8.94546 19.9279 8.90626 19.8911 8.86634L19.8911 8.86633C19.7727 8.73803 19.6475 8.60237 19.5 8.5L17.5511 7.52553L17.3726 7.46331L15.605 6.95429ZM15.605 11.7758V15.0252L17.2976 14.5561L17.6104 14.4558L18.4048 14.1381L20.0001 13.302V11.7237C19.9511 11.7149 19.9022 11.7078 19.8534 11.7036H17.9375L15.605 11.7758ZM18.5525 15.729C18.6347 15.7027 18.7145 15.6693 18.791 15.6292L19.9757 15.0083L20 15L20.0001 16.0054L18.0947 18.1975L15.605 20V16.6288C15.8693 16.6288 16.1177 16.5604 16.3334 16.4403L18.5525 15.729Z"/>
    </mask>
    <path fill-rule="evenodd" clip-rule="evenodd"
          d="M18.1201 3.8268L20.0001 5.97023V6.99324L18.7966 6.38512C18.7375 6.35525 18.6764 6.32933 18.6139 6.30753L16.0988 5.43067C15.9379 5.37458 15.771 5.34703 15.605 5.34705V2.00001L18.1201 3.8268ZM13.9542 6.91001H8.06018V10.2185H13.9542V6.91001ZM6.39511 10.2161V6.95428L4.5457 7.48684L4.4828 7.5086L2.5 8.5C2.28672 8.58171 2.12443 8.66229 2 8.7388V9.9021C2.04386 9.9021 2.08788 9.90403 2.13195 9.90792L4.0412 10.0765L6.39511 10.2161ZM0.554871 11.0001C0.518789 10.8704 0.5 10.7353 0.5 10.5981V8.67385C0.5 8.53599 0.518899 8.401 0.554791 8.27196C0.518892 8.14289 0.5 8.0079 0.5 7.87009V5.97023C0.5 5.60521 0.633102 5.25271 0.874366 4.97879L2.80517 2.78664C2.87916 2.70263 2.96233 2.62717 3.05312 2.56166L5.51743 0.783588C5.79276 0.584931 6.12118 0.489338 6.44847 0.500943C6.46485 0.500316 6.48201 0.5 6.49998 0.5H15.4542C15.4803 0.5 15.5048 0.500667 15.5277 0.501984C15.8644 0.484651 16.2037 0.580989 16.4865 0.786354L19.0016 2.61314C19.0918 2.67862 19.1743 2.75394 19.2478 2.8377L21.1278 4.98113C21.3678 5.25475 21.5001 5.60628 21.5001 5.97023V7.87009C21.5001 8.0079 21.4812 8.1429 21.4453 8.27197C21.4812 8.40101 21.5001 8.536 21.5001 8.67385V10.5981C21.5001 10.7353 21.4813 10.8704 21.4452 11.0001C21.4813 11.1298 21.5001 11.2649 21.5001 11.4021V13.302C21.5001 13.4441 21.48 13.5832 21.4419 13.7159C21.48 13.8486 21.5001 13.9877 21.5001 14.1299V16.0054C21.5001 16.367 21.3694 16.7165 21.1322 16.9894L19.2268 19.1816C19.1517 19.2679 19.067 19.3454 18.9743 19.4126L16.4846 21.215C16.1428 21.416 15.756 21.5211 15.3816 21.4757H7.00001C6.95889 21.4757 6.92076 21.474 6.88544 21.4708C6.32031 21.4905 5.76557 21.398 5.50958 21.2107L3.04527 19.4083C2.95752 19.3441 2.87702 19.2706 2.80517 19.189L0.874366 16.9969C0.633102 16.723 0.5 16.3705 0.5 16.0055V14.1056C0.5 13.9678 0.518888 13.8328 0.554774 13.7038C0.518889 13.5747 0.5 13.4398 0.5 13.302V11.4021C0.5 11.2649 0.518789 11.1298 0.554871 11.0001ZM6.39511 14.9838L5 14.5L3.88533 14.2771L2 13.302V12.0981C2.04386 12.0981 2.08788 12.0961 2.13194 12.0923L4.04119 11.9237L6.39511 11.7841V14.9838ZM2 14.9907V16.0055L3.9308 18.1976L6.39511 20V16.6288C6.23465 16.6288 6.07329 16.603 5.91729 16.5506L3.45298 15.7225C3.38037 15.6981 3.30973 15.6681 3.24169 15.6329L2 14.9907ZM2 5.97023V6.9937L3.25505 6.36039C3.31501 6.33014 3.37694 6.30394 3.44041 6.28199L5.90472 5.42948C6.06456 5.37419 6.23029 5.34703 6.39511 5.34705V2.00001L3.9308 3.77808L2 5.97023ZM8.06018 16.6285H13.9542V19.9757H8.06018V16.6285ZM13.9542 15.0657V11.7571H8.06018V15.0657H13.9542ZM8.06018 2V5.34705H13.9542V2H8.06018ZM15.605 6.95429V10.2179L17.9605 10.1377L20.0001 10.1376L20.0001 10.1376V8.98273C19.9641 8.94546 19.9279 8.90626 19.8911 8.86634L19.8911 8.86633C19.7727 8.73803 19.6475 8.60237 19.5 8.5L17.5511 7.52553L17.3726 7.46331L15.605 6.95429ZM15.605 11.7758V15.0252L17.2976 14.5561L17.6104 14.4558L18.4048 14.1381L20.0001 13.302V11.7237C19.9511 11.7149 19.9022 11.7078 19.8534 11.7036H17.9375L15.605 11.7758ZM18.5525 15.729C18.6347 15.7027 18.7145 15.6693 18.791 15.6292L19.9757 15.0083L20 15L20.0001 16.0054L18.0947 18.1975L15.605 20V16.6288C15.8693 16.6288 16.1177 16.5604 16.3334 16.4403L18.5525 15.729Z"
          fill="currentColor"/>
    <path d="M20.0001 5.97023H20.2001C20.2001 5.9217 20.1825 5.87483 20.1505 5.83835L20.0001 5.97023ZM18.1201 3.8268L18.2705 3.69492C18.2607 3.68375 18.2497 3.67371 18.2376 3.66497L18.1201 3.8268ZM20.0001 6.99324L19.9099 7.17175C19.9719 7.20307 20.0457 7.19999 20.1049 7.16359C20.1641 7.1272 20.2001 7.06271 20.2001 6.99324H20.0001ZM18.7966 6.38512L18.8868 6.20661L18.7966 6.38512ZM18.6139 6.30753L18.5481 6.49638L18.6139 6.30753ZM16.0988 5.43067L16.1646 5.24182L16.0988 5.43067ZM15.605 5.34705H15.405C15.405 5.40009 15.4261 5.45096 15.4636 5.48847C15.5011 5.52598 15.552 5.54705 15.605 5.54705L15.605 5.34705ZM15.605 2.00001L15.7225 1.83819C15.6617 1.79399 15.5812 1.78767 15.5142 1.82181C15.4472 1.85596 15.405 1.9248 15.405 2.00001H15.605ZM8.06018 6.91001V6.71001C7.94972 6.71001 7.86018 6.79955 7.86018 6.91001H8.06018ZM13.9542 6.91001H14.1542C14.1542 6.79955 14.0647 6.71001 13.9542 6.71001V6.91001ZM8.06018 10.2185H7.86018C7.86018 10.329 7.94972 10.4185 8.06018 10.4185V10.2185ZM13.9542 10.2185V10.4185C14.0647 10.4185 14.1542 10.329 14.1542 10.2185H13.9542ZM6.39511 6.95428H6.59511C6.59511 6.89145 6.56558 6.83227 6.51538 6.79448C6.46518 6.7567 6.40014 6.7447 6.33977 6.76209L6.39511 6.95428ZM6.39511 10.2161L6.38327 10.4158C6.43827 10.419 6.49218 10.3995 6.53228 10.3617C6.57238 10.3239 6.59511 10.2712 6.59511 10.2161H6.39511ZM4.5457 7.48684L4.49028 7.29438L4.48031 7.29783L4.5457 7.48684ZM4.4828 7.5086L4.41742 7.31959C4.40918 7.32244 4.40115 7.32582 4.39336 7.32971L4.4828 7.5086ZM2.5 8.5L2.57155 8.68676C2.57764 8.68443 2.58361 8.6818 2.58944 8.67889L2.5 8.5ZM2 8.7388L1.89524 8.56844C1.83606 8.60483 1.8 8.66933 1.8 8.7388H2ZM2 9.9021H1.8C1.8 10.0126 1.88954 10.1021 1.99999 10.1021L2 9.9021ZM2.13195 9.90792L2.11435 10.1071H2.11435L2.13195 9.90792ZM4.0412 10.0765L4.0236 10.2758L4.02936 10.2762L4.0412 10.0765ZM0.554871 11.0001L0.747552 11.0537C0.757311 11.0186 0.757311 10.9815 0.747552 10.9465L0.554871 11.0001ZM0.554791 8.27196L0.747476 8.32555C0.757229 8.29049 0.757229 8.25343 0.747477 8.21837L0.554791 8.27196ZM0.874366 4.97879L1.02445 5.11098H1.02445L0.874366 4.97879ZM2.80517 2.78664L2.65508 2.65445L2.80517 2.78664ZM3.05312 2.56166L2.93609 2.39947V2.39947L3.05312 2.56166ZM5.51743 0.783588L5.4004 0.621399V0.621399L5.51743 0.783588ZM6.44847 0.500943L6.44138 0.700817C6.44629 0.700991 6.4512 0.700984 6.45611 0.700797L6.44847 0.500943ZM15.5277 0.501984L15.5162 0.701654C15.5234 0.702071 15.5307 0.702093 15.5379 0.70172L15.5277 0.501984ZM16.4865 0.786354L16.3689 0.948174V0.948174L16.4865 0.786354ZM19.0016 2.61314L19.1191 2.45132L19.1191 2.45132L19.0016 2.61314ZM19.2478 2.8377L19.0974 2.96958L19.2478 2.8377ZM21.1278 4.98113L21.2781 4.84926V4.84925L21.1278 4.98113ZM21.4453 8.27197L21.2526 8.21837C21.2429 8.25344 21.2429 8.2905 21.2526 8.32556L21.4453 8.27197ZM21.4452 11.0001L21.2525 10.9465C21.2428 10.9816 21.2428 11.0187 21.2525 11.0537L21.4452 11.0001ZM21.4419 13.7159L21.2496 13.6607C21.2393 13.6968 21.2393 13.735 21.2496 13.7711L21.4419 13.7159ZM21.1322 16.9894L20.9813 16.8582V16.8582L21.1322 16.9894ZM19.2268 19.1816L19.3778 19.3128H19.3778L19.2268 19.1816ZM18.9743 19.4126L19.0916 19.5746L19.0916 19.5746L18.9743 19.4126ZM16.4846 21.215L16.586 21.3874C16.5914 21.3842 16.5967 21.3807 16.6019 21.377L16.4846 21.215ZM15.3816 21.4757L15.4056 21.2771C15.3977 21.2762 15.3896 21.2757 15.3816 21.2757V21.4757ZM6.88544 21.4708L6.90375 21.2716C6.89535 21.2708 6.8869 21.2706 6.87847 21.2709L6.88544 21.4708ZM5.50958 21.2107L5.62765 21.0493L5.50958 21.2107ZM3.04527 19.4083L2.92719 19.5697H2.9272L3.04527 19.4083ZM2.80517 19.189L2.95525 19.0568H2.95525L2.80517 19.189ZM0.874366 16.9969L1.02445 16.8647L1.02445 16.8647L0.874366 16.9969ZM0.554774 13.7038L0.747462 13.7574C0.757212 13.7223 0.757212 13.6853 0.747462 13.6502L0.554774 13.7038ZM6.39511 14.9838L6.32959 15.1727C6.39073 15.1939 6.45835 15.1842 6.51108 15.1467C6.5638 15.1092 6.59511 15.0485 6.59511 14.9838H6.39511ZM5 14.5L5.06552 14.3111C5.05693 14.3081 5.04814 14.3057 5.03922 14.3039L5 14.5ZM3.88533 14.2771L3.79345 14.4547C3.81005 14.4633 3.82778 14.4695 3.84611 14.4732L3.88533 14.2771ZM2 13.302H1.8C1.8 13.3767 1.84171 13.4453 1.90812 13.4796L2 13.302ZM2 12.0981L1.99999 11.8981C1.88954 11.8981 1.8 11.9876 1.8 12.0981H2ZM2.13194 12.0923L2.11435 11.893H2.11435L2.13194 12.0923ZM4.04119 11.9237L4.02934 11.7239L4.0236 11.7244L4.04119 11.9237ZM6.39511 11.7841H6.59511C6.59511 11.729 6.57238 11.6763 6.53228 11.6385C6.49218 11.6007 6.43827 11.5811 6.38327 11.5844L6.39511 11.7841ZM2 16.0055H1.8C1.8 16.0541 1.81775 16.1011 1.84992 16.1376L2 16.0055ZM2 14.9907L2.09188 14.8131C2.02988 14.781 1.95565 14.7836 1.89602 14.8199C1.83639 14.8562 1.8 14.9209 1.8 14.9907H2ZM3.9308 18.1976L3.78072 18.3298C3.7903 18.3407 3.80103 18.3505 3.81273 18.359L3.9308 18.1976ZM6.39511 20L6.27704 20.1615C6.33784 20.2059 6.41846 20.2125 6.48563 20.1784C6.55279 20.1443 6.59511 20.0754 6.59511 20H6.39511ZM6.39511 16.6288H6.59511C6.59511 16.5757 6.57404 16.5248 6.53653 16.4873C6.49902 16.4498 6.44814 16.4288 6.3951 16.4288L6.39511 16.6288ZM5.91729 16.5506L5.981 16.361H5.981L5.91729 16.5506ZM3.45298 15.7225L3.38927 15.9121H3.38927L3.45298 15.7225ZM3.24169 15.6329L3.33357 15.4553L3.33357 15.4553L3.24169 15.6329ZM2 6.9937H1.8C1.8 7.06314 1.83602 7.12762 1.89517 7.16402C1.95431 7.20042 2.0281 7.20354 2.0901 7.17225L2 6.9937ZM2 5.97023L1.84992 5.83804C1.81775 5.87456 1.8 5.92156 1.8 5.97023H2ZM3.25505 6.36039L3.34515 6.53895H3.34515L3.25505 6.36039ZM3.44041 6.28199L3.50579 6.471L3.50579 6.47099L3.44041 6.28199ZM5.90472 5.42948L5.83933 5.24047H5.83933L5.90472 5.42948ZM6.39511 5.34705L6.39509 5.54705C6.44814 5.54705 6.49902 5.52598 6.53653 5.48847C6.57404 5.45096 6.59511 5.40009 6.59511 5.34705H6.39511ZM6.39511 2.00001H6.59511C6.59511 1.92492 6.55305 1.85615 6.4862 1.82195C6.41935 1.78775 6.33898 1.79388 6.27809 1.83782L6.39511 2.00001ZM3.9308 3.77808L3.81378 3.61589C3.80167 3.62463 3.79058 3.63469 3.78072 3.64589L3.9308 3.77808ZM13.9542 16.6285H14.1542C14.1542 16.5181 14.0647 16.4285 13.9542 16.4285V16.6285ZM8.06018 16.6285V16.4285C7.94972 16.4285 7.86018 16.5181 7.86018 16.6285H8.06018ZM13.9542 19.9757V20.1757C14.0647 20.1757 14.1542 20.0861 14.1542 19.9757H13.9542ZM8.06018 19.9757H7.86018C7.86018 20.0861 7.94972 20.1757 8.06018 20.1757V19.9757ZM13.9542 11.7571H14.1542C14.1542 11.6466 14.0647 11.5571 13.9542 11.5571V11.7571ZM13.9542 15.0657V15.2657C14.0647 15.2657 14.1542 15.1761 14.1542 15.0657H13.9542ZM8.06018 11.7571V11.5571C7.94972 11.5571 7.86018 11.6466 7.86018 11.7571H8.06018ZM8.06018 15.0657H7.86018C7.86018 15.1761 7.94972 15.2657 8.06018 15.2657V15.0657ZM8.06018 5.34705H7.86018C7.86018 5.4575 7.94972 5.54705 8.06018 5.54705V5.34705ZM8.06018 2V1.8C7.94972 1.8 7.86018 1.88954 7.86018 2H8.06018ZM13.9542 5.34705V5.54705C14.0647 5.54705 14.1542 5.4575 14.1542 5.34705H13.9542ZM13.9542 2H14.1542C14.1542 1.88954 14.0647 1.8 13.9542 1.8V2ZM15.605 10.2179H15.405C15.405 10.2721 15.427 10.324 15.466 10.3617C15.505 10.3994 15.5576 10.4196 15.6118 10.4178L15.605 10.2179ZM15.605 6.95429L15.6603 6.7621C15.5999 6.74471 15.5349 6.75671 15.4847 6.79449C15.4345 6.83228 15.405 6.89145 15.405 6.95429H15.605ZM17.9605 10.1377L17.9605 9.93759L17.9537 9.93782L17.9605 10.1377ZM20.0001 10.1376L20.0001 10.3376C20.0077 10.3376 20.0154 10.3372 20.023 10.3363L20.0001 10.1376ZM20.0001 10.1376L20.023 10.3363C20.1239 10.3247 20.2001 10.2392 20.2001 10.1376H20.0001ZM20.0001 8.98273H20.2001C20.2001 8.93089 20.18 8.88109 20.144 8.8438L20.0001 8.98273ZM19.8911 8.86634L19.7346 8.99159L19.7441 9.00197L19.8911 8.86634ZM19.8911 8.86633L20.0477 8.74108L20.0381 8.7307L19.8911 8.86633ZM19.5 8.5L19.614 8.33568C19.6062 8.33024 19.598 8.32538 19.5894 8.32111L19.5 8.5ZM17.5511 7.52553L17.6405 7.34665C17.6329 7.34282 17.625 7.3395 17.6169 7.33668L17.5511 7.52553ZM17.3726 7.46331L17.4385 7.27417L17.4279 7.27112L17.3726 7.46331ZM15.605 15.0252H15.405C15.405 15.0877 15.4342 15.1466 15.4839 15.1844C15.5336 15.2223 15.5982 15.2347 15.6584 15.218L15.605 15.0252ZM15.605 11.7758L15.5988 11.5759C15.4908 11.5793 15.405 11.6678 15.405 11.7758H15.605ZM17.2976 14.5561L17.3511 14.749L17.3587 14.7466L17.2976 14.5561ZM17.6104 14.4558L17.6716 14.6468L17.6847 14.6415L17.6104 14.4558ZM18.4048 14.1381L18.479 14.3238C18.4854 14.3213 18.4916 14.3184 18.4976 14.3152L18.4048 14.1381ZM20.0001 13.302L20.0929 13.4791C20.1588 13.4446 20.2001 13.3763 20.2001 13.302H20.0001ZM20.0001 11.7237H20.2001C20.2001 11.6269 20.1307 11.544 20.0354 11.5268L20.0001 11.7237ZM19.8534 11.7036L19.8707 11.5043C19.8649 11.5038 19.8592 11.5036 19.8534 11.5036V11.7036ZM17.9375 11.7036V11.5035L17.9313 11.5037L17.9375 11.7036ZM18.791 15.6292L18.6982 15.4521L18.791 15.6292ZM18.5525 15.729L18.6136 15.9195H18.6136L18.5525 15.729ZM19.9757 15.0083L19.9113 14.8189C19.9015 14.8223 19.892 14.8263 19.8829 14.8311L19.9757 15.0083ZM20 15L20.2 15C20.2 14.9355 20.1689 14.8749 20.1164 14.8374C20.064 14.7998 19.9966 14.7899 19.9355 14.8107L20 15ZM20.0001 16.0054L20.151 16.1366C20.1827 16.1002 20.2001 16.0536 20.2001 16.0054L20.0001 16.0054ZM18.0947 18.1975L18.212 18.3595C18.2243 18.3506 18.2356 18.3403 18.2456 18.3287L18.0947 18.1975ZM15.605 20H15.405C15.405 20.0751 15.4471 20.1439 15.514 20.1781C15.581 20.2123 15.6614 20.206 15.7223 20.162L15.605 20ZM15.605 16.6288L15.605 16.4288C15.4945 16.4288 15.405 16.5183 15.405 16.6288H15.605ZM16.3334 16.4403L16.2723 16.2499C16.2598 16.2539 16.2476 16.2592 16.2361 16.2656L16.3334 16.4403ZM20.1505 5.83835L18.2705 3.69492L17.9697 3.95867L19.8497 6.10211L20.1505 5.83835ZM20.2001 6.99324V5.97023H19.8001V6.99324H20.2001ZM18.7064 6.56363L19.9099 7.17175L20.0903 6.81473L18.8868 6.20661L18.7064 6.56363ZM18.5481 6.49638C18.6023 6.51528 18.6552 6.53774 18.7064 6.56363L18.8868 6.20661C18.8198 6.17276 18.7506 6.14339 18.6797 6.11868L18.5481 6.49638ZM16.0329 5.61952L18.5481 6.49638L18.6797 6.11868L16.1646 5.24182L16.0329 5.61952ZM15.605 5.54705C15.7489 5.54703 15.8935 5.5709 16.0329 5.61952L16.1646 5.24182C15.9823 5.17826 15.7931 5.14703 15.605 5.14705L15.605 5.54705ZM15.405 2.00001V5.34705H15.805V2.00001H15.405ZM18.2376 3.66497L15.7225 1.83819L15.4874 2.16183L18.0026 3.98862L18.2376 3.66497ZM8.06018 7.11001H13.9542V6.71001H8.06018V7.11001ZM8.26018 10.2185V6.91001H7.86018V10.2185H8.26018ZM13.9542 10.0185H8.06018V10.4185H13.9542V10.0185ZM13.7542 6.91001V10.2185H14.1542V6.91001H13.7542ZM6.19511 6.95428V10.2161H6.59511V6.95428H6.19511ZM4.60104 7.67903L6.45045 7.14647L6.33977 6.76209L4.49036 7.29465L4.60104 7.67903ZM4.54819 7.69761L4.61109 7.67585L4.48031 7.29783L4.41742 7.31959L4.54819 7.69761ZM2.58944 8.67889L4.57224 7.68748L4.39336 7.32971L2.41056 8.32111L2.58944 8.67889ZM2.10476 8.90917C2.21665 8.84037 2.3674 8.76497 2.57155 8.68676L2.42845 8.31324C2.20604 8.39844 2.03221 8.48421 1.89524 8.56844L2.10476 8.90917ZM2.2 9.9021V8.7388H1.8V9.9021H2.2ZM2.14954 9.70869C2.09961 9.70429 2.04972 9.7021 2.00001 9.7021L1.99999 10.1021C2.038 10.1021 2.07616 10.1038 2.11435 10.1071L2.14954 9.70869ZM4.05879 9.87729L2.14954 9.70869L2.11435 10.1071L4.0236 10.2757L4.05879 9.87729ZM6.40695 10.0165L4.05304 9.87687L4.02936 10.2762L6.38327 10.4158L6.40695 10.0165ZM0.3 10.5981C0.3 10.7535 0.321294 10.9067 0.36219 11.0537L0.747552 10.9465C0.716283 10.8341 0.7 10.717 0.7 10.5981H0.3ZM0.3 8.67385V10.5981H0.7V8.67385H0.3ZM0.362106 8.21836C0.321415 8.36466 0.3 8.51767 0.3 8.67385H0.7C0.7 8.55431 0.716384 8.43734 0.747476 8.32555L0.362106 8.21836ZM0.3 7.87009C0.3 8.02621 0.321407 8.17923 0.362106 8.32555L0.747477 8.21837C0.716377 8.10655 0.7 7.98958 0.7 7.87009H0.3ZM0.3 5.97023V7.87009H0.7V5.97023H0.3ZM0.724281 4.8466C0.450849 5.15704 0.3 5.55654 0.3 5.97023H0.7C0.7 5.65388 0.815355 5.34838 1.02445 5.11098L0.724281 4.8466ZM2.65508 2.65445L0.724281 4.8466L1.02445 5.11098L2.95525 2.91884L2.65508 2.65445ZM2.93609 2.39947C2.8332 2.47371 2.73894 2.55924 2.65508 2.65445L2.95525 2.91884C3.01938 2.84602 3.09146 2.78062 3.17014 2.72385L2.93609 2.39947ZM5.4004 0.621399L2.93609 2.39947L3.17014 2.72385L5.63445 0.945777L5.4004 0.621399ZM6.45555 0.301068C6.08472 0.28792 5.71246 0.396241 5.4004 0.621399L5.63445 0.945777C5.87305 0.773621 6.15764 0.690757 6.44138 0.700817L6.45555 0.301068ZM6.49998 0.3C6.47968 0.3 6.45996 0.300357 6.44082 0.301089L6.45611 0.700797C6.46974 0.700275 6.48435 0.7 6.49998 0.7V0.3ZM15.4542 0.3H6.49998V0.7H15.4542V0.3ZM15.5391 0.302315C15.512 0.300752 15.4837 0.3 15.4542 0.3V0.7C15.4769 0.7 15.4975 0.700582 15.5162 0.701654L15.5391 0.302315ZM16.604 0.624533C16.2835 0.391771 15.8989 0.282609 15.5174 0.302249L15.5379 0.70172C15.8299 0.686693 16.1239 0.770208 16.3689 0.948174L16.604 0.624533ZM19.1191 2.45132L16.604 0.624533L16.3689 0.948174L18.8841 2.77496L19.1191 2.45132ZM19.3982 2.70582C19.3149 2.61089 19.2213 2.52553 19.1191 2.45132L18.8841 2.77496C18.9622 2.83171 19.0338 2.89699 19.0974 2.96958L19.3982 2.70582ZM21.2781 4.84925L19.3982 2.70582L19.0974 2.96958L20.9774 5.11301L21.2781 4.84925ZM21.7001 5.97023C21.7001 5.55775 21.5501 5.15935 21.2781 4.84926L20.9774 5.11301C21.1854 5.35014 21.3001 5.65481 21.3001 5.97023H21.7001ZM21.7001 7.87009V5.97023H21.3001V7.87009H21.7001ZM21.638 8.32556C21.6787 8.17924 21.7001 8.02622 21.7001 7.87009H21.3001C21.3001 7.98958 21.2837 8.10656 21.2526 8.21837L21.638 8.32556ZM21.7001 8.67385C21.7001 8.51767 21.6787 8.36466 21.638 8.21837L21.2526 8.32556C21.2837 8.43735 21.3001 8.55432 21.3001 8.67385H21.7001ZM21.7001 10.5981V8.67385H21.3001V10.5981H21.7001ZM21.6379 11.0537C21.6788 10.9067 21.7001 10.7536 21.7001 10.5981H21.3001C21.3001 10.717 21.2838 10.8341 21.2525 10.9465L21.6379 11.0537ZM21.7001 11.4021C21.7001 11.2466 21.6788 11.0935 21.6379 10.9465L21.2525 11.0537C21.2838 11.1661 21.3001 11.2832 21.3001 11.4021H21.7001ZM21.7001 13.302V11.4021H21.3001V13.302H21.7001ZM21.6341 13.7711C21.6773 13.6206 21.7001 13.463 21.7001 13.302H21.3001C21.3001 13.4252 21.2827 13.5457 21.2496 13.6607L21.6341 13.7711ZM21.7001 14.1299C21.7001 13.9689 21.6773 13.8111 21.6341 13.6607L21.2496 13.7711C21.2827 13.8861 21.3001 14.0066 21.3001 14.1299H21.7001ZM21.7001 16.0054V14.1299H21.3001V16.0054H21.7001ZM21.2832 17.1206C21.552 16.8113 21.7001 16.4152 21.7001 16.0054H21.3001C21.3001 16.3188 21.1869 16.6217 20.9813 16.8582L21.2832 17.1206ZM19.3778 19.3128L21.2832 17.1206L20.9813 16.8582L19.0759 19.0504L19.3778 19.3128ZM19.0916 19.5746C19.1967 19.4985 19.2927 19.4107 19.3778 19.3128L19.0759 19.0504C19.0108 19.1252 18.9374 19.1924 18.857 19.2506L19.0916 19.5746ZM16.6019 21.377L19.0916 19.5746L18.857 19.2506L16.3673 21.053L16.6019 21.377ZM15.3575 21.6742C15.7848 21.7261 16.2154 21.6053 16.586 21.3874L16.3832 21.0426C16.0702 21.2267 15.7272 21.3161 15.4056 21.2771L15.3575 21.6742ZM7.00001 21.6757H15.3816V21.2757H7.00001V21.6757ZM6.86714 21.6699C6.90929 21.6738 6.95358 21.6757 7.00001 21.6757V21.2757C6.9642 21.2757 6.93224 21.2742 6.90375 21.2716L6.86714 21.6699ZM5.39151 21.3722C5.5557 21.4923 5.79357 21.5691 6.04565 21.6151C6.30311 21.6621 6.59765 21.6809 6.89242 21.6707L6.87847 21.2709C6.6081 21.2803 6.3427 21.2627 6.11751 21.2216C5.88694 21.1795 5.71944 21.1165 5.62765 21.0493L5.39151 21.3722ZM2.9272 19.5697L5.39151 21.3722L5.62765 21.0493L3.16334 19.2469L2.9272 19.5697ZM2.65508 19.3212C2.73651 19.4137 2.82775 19.497 2.92719 19.5697L3.16334 19.2469C3.08729 19.1913 3.01752 19.1275 2.95525 19.0568L2.65508 19.3212ZM0.724281 17.1291L2.65508 19.3212L2.95525 19.0568L1.02445 16.8647L0.724281 17.1291ZM0.3 16.0055C0.3 16.4191 0.450849 16.8186 0.724281 17.1291L1.02445 16.8647C0.815355 16.6273 0.7 16.3218 0.7 16.0055H0.3ZM0.3 14.1056V16.0055H0.7V14.1056H0.3ZM0.362087 13.6502C0.321403 13.7965 0.3 13.9495 0.3 14.1056H0.7C0.7 13.9861 0.716374 13.8692 0.747462 13.7574L0.362087 13.6502ZM0.3 13.302C0.3 13.4581 0.321403 13.6111 0.362087 13.7574L0.747462 13.6502C0.716374 13.5384 0.7 13.4215 0.7 13.302H0.3ZM0.3 11.4021V13.302H0.7V11.4021H0.3ZM0.36219 10.9465C0.321294 11.0935 0.3 11.2466 0.3 11.4021H0.7C0.7 11.2832 0.716283 11.1661 0.747552 11.0537L0.36219 10.9465ZM6.46063 14.7948L5.06552 14.3111L4.93448 14.689L6.32959 15.1727L6.46063 14.7948ZM5.03922 14.3039L3.92455 14.081L3.84611 14.4732L4.96078 14.6961L5.03922 14.3039ZM3.97721 14.0994L2.09188 13.1243L1.90812 13.4796L3.79345 14.4547L3.97721 14.0994ZM2.2 13.302V12.0981H1.8V13.302H2.2ZM2.00001 12.2981C2.04972 12.2981 2.09961 12.2959 2.14954 12.2915L2.11435 11.893C2.07616 11.8964 2.038 11.8981 1.99999 11.8981L2.00001 12.2981ZM2.14954 12.2915L4.05878 12.1229L4.0236 11.7244L2.11435 11.893L2.14954 12.2915ZM4.05303 12.1233L6.40695 11.9837L6.38327 11.5844L4.02935 11.724L4.05303 12.1233ZM6.19511 11.7841V14.9838H6.59511V11.7841H6.19511ZM2.2 16.0055V14.9907H1.8V16.0055H2.2ZM4.08088 18.0654L2.15008 15.8733L1.84992 16.1376L3.78072 18.3298L4.08088 18.0654ZM6.51318 19.8386L4.04887 18.0362L3.81273 18.359L6.27704 20.1615L6.51318 19.8386ZM6.19511 16.6288V20H6.59511V16.6288H6.19511ZM5.85358 16.7402C6.03036 16.7996 6.21325 16.8288 6.39512 16.8288L6.3951 16.4288C6.25605 16.4288 6.11623 16.4065 5.981 16.361L5.85358 16.7402ZM3.38927 15.9121L5.85358 16.7402L5.981 16.361L3.51669 15.5329L3.38927 15.9121ZM3.14981 15.8106C3.22692 15.8505 3.30697 15.8844 3.38927 15.9121L3.51669 15.5329C3.45376 15.5117 3.39254 15.4858 3.33357 15.4553L3.14981 15.8106ZM1.90812 15.1684L3.14981 15.8106L3.33357 15.4553L2.09188 14.8131L1.90812 15.1684ZM2.2 6.9937V5.97023H1.8V6.9937H2.2ZM3.16495 6.18184L1.9099 6.81514L2.0901 7.17225L3.34515 6.53895L3.16495 6.18184ZM3.37502 6.09298C3.30309 6.11786 3.23291 6.14755 3.16495 6.18184L3.34515 6.53895C3.39712 6.51273 3.45078 6.49002 3.50579 6.471L3.37502 6.09298ZM5.83933 5.24047L3.37502 6.09298L3.50579 6.47099L5.9701 5.61849L5.83933 5.24047ZM6.39513 5.14705C6.20831 5.14703 6.02046 5.17781 5.83933 5.24047L5.9701 5.61849C6.10866 5.57056 6.25226 5.54703 6.39509 5.54705L6.39513 5.14705ZM6.19511 2.00001V5.34705H6.59511V2.00001H6.19511ZM4.04782 3.94027L6.51214 2.1622L6.27809 1.83782L3.81378 3.61589L4.04782 3.94027ZM2.15008 6.10242L4.08088 3.91027L3.78072 3.64589L1.84992 5.83804L2.15008 6.10242ZM13.9542 16.4285H8.06018V16.8285H13.9542V16.4285ZM14.1542 19.9757V16.6285H13.7542V19.9757H14.1542ZM8.06018 20.1757H13.9542V19.7757H8.06018V20.1757ZM7.86018 16.6285V19.9757H8.26018V16.6285H7.86018ZM13.7542 11.7571V15.0657H14.1542V11.7571H13.7542ZM8.06018 11.9571H13.9542V11.5571H8.06018V11.9571ZM8.26018 15.0657V11.7571H7.86018V15.0657H8.26018ZM13.9542 14.8657H8.06018V15.2657H13.9542V14.8657ZM8.26018 5.34705V2H7.86018V5.34705H8.26018ZM13.9542 5.14705H8.06018V5.54705H13.9542V5.14705ZM13.7542 2V5.34705H14.1542V2H13.7542ZM8.06018 2.2H13.9542V1.8H8.06018V2.2ZM15.805 10.2179V6.95429H15.405V10.2179H15.805ZM17.9537 9.93782L15.5982 10.018L15.6118 10.4178L17.9673 10.3376L17.9537 9.93782ZM20.0001 9.93765L17.9605 9.93771L17.9605 10.3377L20.0001 10.3376L20.0001 9.93765ZM19.9772 9.93896L19.9771 9.93897L20.023 10.3363L20.023 10.3363L19.9772 9.93896ZM19.8001 8.98273V10.1376H20.2001V8.98273H19.8001ZM19.7441 9.00197C19.7807 9.04156 19.8184 9.08247 19.8562 9.12165L20.144 8.8438C20.1098 8.80845 20.0752 8.77095 20.0381 8.73072L19.7441 9.00197ZM19.7349 8.99127L19.7349 8.99128L20.0473 8.74141L20.0473 8.74139L19.7349 8.99127ZM19.386 8.66432C19.5124 8.75204 19.6231 8.87076 19.7441 9.00196L20.0381 8.7307C19.9224 8.6053 19.7827 8.45271 19.614 8.33568L19.386 8.66432ZM17.4616 7.70442L19.4106 8.67889L19.5894 8.32111L17.6405 7.34665L17.4616 7.70442ZM17.3067 7.65216L17.4852 7.71439L17.6169 7.33668L17.4384 7.27446L17.3067 7.65216ZM15.5496 7.14648L17.3172 7.6555L17.4279 7.27112L15.6603 6.7621L15.5496 7.14648ZM15.805 15.0252V11.7758H15.405V15.0252H15.805ZM17.2442 14.3634L15.5515 14.8325L15.6584 15.218L17.351 14.7488L17.2442 14.3634ZM17.5494 14.2654L17.2366 14.3656L17.3587 14.7466L17.6715 14.6463L17.5494 14.2654ZM18.3305 13.9524L17.5361 14.2701L17.6847 14.6415L18.479 14.3238L18.3305 13.9524ZM19.9072 13.1248L18.3119 13.961L18.4976 14.3152L20.0929 13.4791L19.9072 13.1248ZM19.8001 11.7237V13.302H20.2001V11.7237H19.8001ZM19.8362 11.9028C19.8773 11.9064 19.9201 11.9125 19.9647 11.9205L20.0354 11.5268C19.9822 11.5173 19.927 11.5092 19.8707 11.5043L19.8362 11.9028ZM17.9375 11.9036H19.8534V11.5036H17.9375V11.9036ZM15.6111 11.9757L17.9437 11.9035L17.9313 11.5037L15.5988 11.5759L15.6111 11.9757ZM18.6982 15.4521C18.6319 15.4868 18.5627 15.5157 18.4915 15.5386L18.6136 15.9195C18.7068 15.8896 18.7972 15.8518 18.8838 15.8063L18.6982 15.4521ZM19.8829 14.8311L18.6982 15.4521L18.8838 15.8063L20.0686 15.1854L19.8829 14.8311ZM19.9355 14.8107L19.9113 14.8189L20.0402 15.1976L20.0645 15.1893L19.9355 14.8107ZM20.2001 16.0054L20.2 15L19.8 15L19.8001 16.0054L20.2001 16.0054ZM18.2456 18.3287L20.151 16.1366L19.8491 15.8742L17.9437 18.0663L18.2456 18.3287ZM15.7223 20.162L18.212 18.3595L17.9774 18.0355L15.4877 19.838L15.7223 20.162ZM15.405 16.6288V20H15.805V16.6288H15.405ZM16.2361 16.2656C16.0494 16.3695 15.8344 16.4288 15.605 16.4288L15.605 16.8288C15.9042 16.8288 16.186 16.7513 16.4306 16.6151L16.2361 16.2656ZM18.4915 15.5386L16.2723 16.2499L16.3944 16.6308L18.6136 15.9195L18.4915 15.5386Z"
          fill="currentColor" mask="url(#path-1-outside-1)"/>
</svg>
