<svg width="15" height="17" viewBox="0 0 15 17" fill="none" xmlns="http://www.w3.org/2000/svg">
<path d="M14.1843 15.5844C14.1698 15.5367 14.1461 15.4923 14.1146 15.4539C14.0831 15.4154 14.0445 15.3837 14.0009 15.3604C13.9573 15.3371 13.9096 15.3227 13.8605 15.3181C13.8114 15.3135 13.7619 15.3188 13.7148 15.3336C13.4904 15.4043 13.2568 15.4401 13.0218 15.44C12.0543 15.44 11.2818 14.905 10.8498 13.9382C10.6998 13.5841 7.06531 5.24536 6.58081 4.192L6.49231 3.99896C5.98681 2.8772 5.13781 1 2.67781 1C2.57835 1 2.48297 1.04004 2.41264 1.1113C2.34232 1.18256 2.30281 1.27922 2.30281 1.38C2.30281 1.48078 2.34232 1.57744 2.41264 1.6487C2.48297 1.71996 2.57835 1.76 2.67781 1.76C4.65631 1.76 5.32381 3.23744 5.80981 4.31512L5.89981 4.51272C5.99281 4.71488 6.20881 5.20128 6.49981 5.85336L1.04281 15.633C0.997633 15.7204 0.987775 15.8222 1.01532 15.9169C1.04286 16.0115 1.10565 16.0916 1.1904 16.1401C1.27516 16.1887 1.37523 16.202 1.46946 16.1771C1.56368 16.1523 1.64468 16.0912 1.69531 16.007L6.87631 6.71824C8.14381 9.60624 10.1358 14.183 10.1643 14.2483C10.7178 15.4886 11.7603 16.2 13.0143 16.2C13.325 16.2004 13.634 16.1533 13.9308 16.0602C13.9785 16.0461 14.0229 16.0225 14.0614 15.9909C14.1 15.9593 14.1321 15.9202 14.1556 15.8759C14.1792 15.8317 14.1939 15.7831 14.1988 15.7331C14.2037 15.683 14.1988 15.6325 14.1843 15.5844V15.5844Z" stroke="currentColor" stroke-width="1.3"/>
</svg>
