<svg width="20" height="13" viewBox="0 0 20 13" fill="none" xmlns="http://www.w3.org/2000/svg">
<path d="M16.2927 4.68286C16.2195 4.68286 16.1707 4.68286 16.0975 4.68286C16.1951 5.07311 16.2439 5.48774 16.2439 5.90237C16.2683 5.90237 16.2683 5.90237 16.2927 5.90237C17.6585 5.90237 18.7805 7.02432 18.7805 8.43896C18.7805 9.24384 18.4146 9.97554 17.8292 10.439C18.0975 10.7316 18.4146 10.9755 18.7805 11.2194C19.5366 10.5365 20 9.53652 20 8.43896C20 6.36579 18.3414 4.68286 16.2927 4.68286Z" fill="black"/>
<path d="M17.8293 10.439C16.8293 9.39024 16.3903 7.92683 16.2439 5.95122C16.1952 2.65854 13.5366 0 10.2439 0C8.09761 0 6.24395 1.12195 5.17078 2.80488C5.6098 2.85366 6.02443 2.97561 6.43907 3.12195C7.31712 1.97561 8.68297 1.21951 10.2439 1.21951C12.8537 1.21951 14.9757 3.34146 15.0244 5.97561V6.02439V6.07317C15.1708 8.02439 15.6098 9.68293 16.6586 10.9756C16.5366 10.9756 16.4147 10.9756 16.2683 10.9756H10.6098C11.0976 11.4878 11.7318 11.878 12.5366 12.1951H16.2683C16.8049 12.1951 17.2683 12.122 17.7074 11.9512C18.122 11.7805 18.4635 11.561 18.7805 11.2195C18.4147 11 18.122 10.7317 17.8293 10.439Z" fill="black"/>
<path d="M10.6098 10.9756C9.82927 10.1708 9.41463 9.04881 9.31707 7.39027C9.26829 4.8293 7.19512 2.78052 4.65854 2.78052C2.07317 2.78052 0 4.87808 0 7.48784C0 10.0488 2.12195 12.1464 4.63415 12.1952H12.5366C11.7317 11.8781 11.0976 11.4878 10.6098 10.9756ZM4.65854 10.9756C2.78049 10.9269 1.21951 9.36588 1.21951 7.48784C1.21951 5.53662 2.7561 4.00003 4.65854 4.00003C6.5122 4.00003 8.07317 5.51222 8.09756 7.41466V7.43905V7.46344C8.19512 8.8293 8.46342 10 9.07317 10.9756H4.65854Z" fill="black"/>
</svg>
