<svg width="144" height="8" viewBox="0 0 144 8" fill="none" xmlns="http://www.w3.org/2000/svg">
<rect x="71" width="2" height="8" fill="#DADADA"/>
<rect x="132" width="2" height="8" fill="#DADADA"/>
<rect x="10" width="2" height="8" fill="#DADADA"/>
<path fill-rule="evenodd" clip-rule="evenodd" d="M1.57339 8H0.560059V4H1.57339V8ZM6.64006 8H5.62673V4H6.64006V8ZM11.7067 8H10.6934V4H11.7067V8ZM16.7734 8H15.7601V4H16.7734V8ZM21.8401 8H20.8267V4H21.8401V8ZM26.9067 8H25.8934V4H26.9067V8ZM31.9734 8H30.9601V4H31.9734V8ZM37.0401 8H36.0267V4H37.0401V8ZM42.1067 8H41.0934V4H42.1067V8ZM47.1734 8H46.1601V4H47.1734V8ZM52.2401 8H51.2267V4H52.2401V8ZM57.3067 8H56.2934V4H57.3067V8ZM62.3734 8H61.3601V4H62.3734V8ZM67.4401 8H66.4267V4H67.4401V8ZM72.5067 8H71.4934V4H72.5067V8ZM77.5734 8H76.5601V4H77.5734V8ZM82.6401 8H81.6267V4H82.6401V8ZM87.7067 8H86.6934V4H87.7067V8ZM92.7734 8H91.76V4H92.7734V8ZM97.8401 8H96.8267V4H97.8401V8ZM102.907 8H101.893V4H102.907V8ZM107.973 8H106.96V4H107.973V8ZM113.04 8H112.027V4H113.04V8ZM118.107 8H117.093V4H118.107V8ZM123.173 8H122.16V4H123.173V8ZM128.24 8H127.227V4H128.24V8ZM138.373 8H137.36V4H138.373V8ZM143.44 8H142.427V4H143.44V8Z" fill="#DADADA"/>
</svg>
