<svg width="150" height="74" viewBox="0 0 150 74" fill="none" xmlns="http://www.w3.org/2000/svg">
<g clip-path="url(#clip0)" filter="url(#filter0_f)">
<path d="M49.4583 36.5C51.4603 36.5 53.0833 34.8659 53.0833 32.85C53.0833 30.8342 51.4603 29.2 49.4583 29.2C47.4563 29.2 45.8333 30.8342 45.8333 32.85C45.8333 34.8659 47.4563 36.5 49.4583 36.5Z" fill="#B9FFEC"/>
<path d="M59.125 26.7667C61.127 26.7667 62.75 25.1325 62.75 23.1167C62.75 21.1008 61.127 19.4667 59.125 19.4667C57.123 19.4667 55.5 21.1008 55.5 23.1167C55.5 25.1325 57.123 26.7667 59.125 26.7667Z" fill="#B9FFEC"/>
<path d="M88.125 29.2C90.127 29.2 91.75 27.5659 91.75 25.55C91.75 23.5342 90.127 21.9 88.125 21.9C86.123 21.9 84.5 23.5342 84.5 25.55C84.5 27.5659 86.123 29.2 88.125 29.2Z" fill="#B9FFEC"/>
<path d="M83.9683 28.0077L79.135 32.8744C79.7815 33.3558 80.3379 33.949 80.7783 34.6264L85.6117 29.7597C84.9267 29.3236 84.3616 28.7212 83.9683 28.0077Z" fill="#B9FFEC"/>
<path d="M78.5308 33.799C77.6429 33.2059 76.5997 32.8925 75.5342 32.8987C74.6211 32.8854 73.719 33.1008 72.9091 33.5255C72.0991 33.9502 71.4067 34.571 70.8942 35.332C70.303 36.216 69.9913 37.2594 70 38.325C70 39.7771 70.5729 41.1697 71.5926 42.1964C72.6123 43.2232 73.9954 43.8 75.4375 43.8C76.8796 43.8 78.2627 43.2232 79.2824 42.1964C80.3021 41.1697 80.875 39.7771 80.875 38.325C80.8726 37.4368 80.6585 36.562 80.2506 35.7744C79.8426 34.9868 79.2529 34.3094 78.5308 33.799Z" fill="#B9FFEC"/>
<path d="M71.4017 33.0933L66.7375 28.397L63.4992 25.1363C63.1532 25.8917 62.6207 26.5451 61.9525 27.0343L65.0217 30.1247L69.855 34.9913V34.7967C70.2593 34.1358 70.7841 33.5579 71.4017 33.0933V33.0933Z" fill="#B9FFEC"/>
<path d="M55.0891 25.769L52.0925 28.7863C52.7778 29.2459 53.3351 29.8741 53.7116 30.6113L56.8775 27.4237C56.1512 27.0344 55.5357 26.4648 55.0891 25.769Z" fill="#B9FFEC"/>
</g>
<path d="M49.4583 36.5C51.4603 36.5 53.0833 34.8659 53.0833 32.85C53.0833 30.8342 51.4603 29.2 49.4583 29.2C47.4563 29.2 45.8333 30.8342 45.8333 32.85C45.8333 34.8659 47.4563 36.5 49.4583 36.5Z" fill="#B9FFEC"/>
<path d="M59.125 26.7667C61.127 26.7667 62.75 25.1325 62.75 23.1167C62.75 21.1008 61.127 19.4667 59.125 19.4667C57.123 19.4667 55.5 21.1008 55.5 23.1167C55.5 25.1325 57.123 26.7667 59.125 26.7667Z" fill="#B9FFEC"/>
<path d="M88.125 29.2C90.127 29.2 91.75 27.5659 91.75 25.55C91.75 23.5342 90.127 21.9 88.125 21.9C86.123 21.9 84.5 23.5342 84.5 25.55C84.5 27.5659 86.123 29.2 88.125 29.2Z" fill="#B9FFEC"/>
<path d="M83.9683 28.0077L79.135 32.8744C79.7815 33.3558 80.3379 33.949 80.7783 34.6264L85.6117 29.7597C84.9267 29.3236 84.3616 28.7212 83.9683 28.0077Z" fill="#B9FFEC"/>
<path d="M78.5308 33.799C77.6429 33.2059 76.5997 32.8925 75.5342 32.8987C74.6211 32.8854 73.719 33.1008 72.9091 33.5255C72.0991 33.9502 71.4067 34.571 70.8942 35.332C70.303 36.216 69.9913 37.2594 70 38.325C70 39.7771 70.5729 41.1697 71.5926 42.1964C72.6123 43.2232 73.9954 43.8 75.4375 43.8C76.8796 43.8 78.2627 43.2232 79.2824 42.1964C80.3021 41.1697 80.875 39.7771 80.875 38.325C80.8726 37.4368 80.6585 36.562 80.2506 35.7744C79.8426 34.9868 79.2529 34.3094 78.5308 33.799Z" fill="#B9FFEC"/>
<path d="M71.4017 33.0933L66.7375 28.397L63.4992 25.1363C63.1532 25.8917 62.6207 26.5451 61.9525 27.0343L65.0217 30.1247L69.855 34.9913V34.7967C70.2593 34.1358 70.7841 33.5579 71.4017 33.0933V33.0933Z" fill="#B9FFEC"/>
<path d="M55.0891 25.769L52.0925 28.7863C52.7778 29.2459 53.3351 29.8741 53.7116 30.6113L56.8775 27.4237C56.1512 27.0344 55.5357 26.4648 55.0891 25.769Z" fill="#B9FFEC"/>
<g filter="url(#filter1_f)">
<path d="M7.608 68.12C6.36 68.12 5.24 67.848 4.248 67.304C3.272 66.76 2.504 66 1.944 65.024C1.384 64.032 1.104 62.92 1.104 61.688C1.104 60.456 1.384 59.352 1.944 58.376C2.504 57.4 3.272 56.64 4.248 56.096C5.24 55.552 6.36 55.28 7.608 55.28C8.696 55.28 9.664 55.496 10.512 55.928C11.376 56.344 12.056 56.96 12.552 57.776L11.28 58.64C10.864 58.016 10.336 57.552 9.696 57.248C9.056 56.928 8.36 56.768 7.608 56.768C6.696 56.768 5.872 56.976 5.136 57.392C4.416 57.792 3.848 58.368 3.432 59.12C3.032 59.872 2.832 60.728 2.832 61.688C2.832 62.664 3.032 63.528 3.432 64.28C3.848 65.016 4.416 65.592 5.136 66.008C5.872 66.408 6.696 66.608 7.608 66.608C8.36 66.608 9.056 66.456 9.696 66.152C10.336 65.848 10.864 65.384 11.28 64.76L12.552 65.624C12.056 66.44 11.376 67.064 10.512 67.496C9.648 67.912 8.68 68.12 7.608 68.12ZM15.7119 50.192H17.4159V68H15.7119V50.192ZM27.3173 68.12C26.1013 68.12 25.0053 67.848 24.0293 67.304C23.0533 66.744 22.2853 65.976 21.7253 65C21.1653 64.024 20.8853 62.92 20.8853 61.688C20.8853 60.456 21.1653 59.352 21.7253 58.376C22.2853 57.4 23.0533 56.64 24.0293 56.096C25.0053 55.552 26.1013 55.28 27.3173 55.28C28.5333 55.28 29.6293 55.552 30.6053 56.096C31.5813 56.64 32.3413 57.4 32.8853 58.376C33.4453 59.352 33.7253 60.456 33.7253 61.688C33.7253 62.92 33.4453 64.024 32.8853 65C32.3413 65.976 31.5813 66.744 30.6053 67.304C29.6293 67.848 28.5333 68.12 27.3173 68.12ZM27.3173 66.608C28.2133 66.608 29.0133 66.408 29.7173 66.008C30.4373 65.592 30.9973 65.008 31.3973 64.256C31.7973 63.504 31.9973 62.648 31.9973 61.688C31.9973 60.728 31.7973 59.872 31.3973 59.12C30.9973 58.368 30.4373 57.792 29.7173 57.392C29.0133 56.976 28.2133 56.768 27.3173 56.768C26.4213 56.768 25.6133 56.976 24.8933 57.392C24.1893 57.792 23.6293 58.368 23.2133 59.12C22.8133 59.872 22.6133 60.728 22.6133 61.688C22.6133 62.648 22.8133 63.504 23.2133 64.256C23.6293 65.008 24.1893 65.592 24.8933 66.008C25.6133 66.408 26.4213 66.608 27.3173 66.608ZM48.5801 55.376V68H46.9481V65.696C46.5001 66.464 45.8841 67.064 45.1001 67.496C44.3161 67.912 43.4201 68.12 42.4121 68.12C40.7641 68.12 39.4601 67.664 38.5001 66.752C37.5561 65.824 37.0841 64.472 37.0841 62.696V55.376H38.7881V62.528C38.7881 63.856 39.1161 64.864 39.7721 65.552C40.4281 66.24 41.3641 66.584 42.5801 66.584C43.9081 66.584 44.9561 66.184 45.7241 65.384C46.4921 64.568 46.8761 63.44 46.8761 62V55.376H48.5801ZM64.8726 50.192V68H63.2406V65.504C62.7286 66.352 62.0486 67 61.2006 67.448C60.3686 67.896 59.4246 68.12 58.3686 68.12C57.1846 68.12 56.1126 67.848 55.1526 67.304C54.1926 66.76 53.4406 66 52.8966 65.024C52.3526 64.048 52.0806 62.936 52.0806 61.688C52.0806 60.44 52.3526 59.328 52.8966 58.352C53.4406 57.376 54.1926 56.624 55.1526 56.096C56.1126 55.552 57.1846 55.28 58.3686 55.28C59.3926 55.28 60.3126 55.496 61.1286 55.928C61.9606 56.344 62.6406 56.96 63.1686 57.776V50.192H64.8726ZM58.5126 66.608C59.3926 66.608 60.1846 66.408 60.8886 66.008C61.6086 65.592 62.1686 65.008 62.5686 64.256C62.9846 63.504 63.1926 62.648 63.1926 61.688C63.1926 60.728 62.9846 59.872 62.5686 59.12C62.1686 58.368 61.6086 57.792 60.8886 57.392C60.1846 56.976 59.3926 56.768 58.5126 56.768C57.6166 56.768 56.8086 56.976 56.0886 57.392C55.3846 57.792 54.8246 58.368 54.4086 59.12C54.0086 59.872 53.8086 60.728 53.8086 61.688C53.8086 62.648 54.0086 63.504 54.4086 64.256C54.8246 65.008 55.3846 65.592 56.0886 66.008C56.8086 66.408 57.6166 66.608 58.5126 66.608ZM74.2982 61.664L71.3222 64.4V68H69.6182V50.192H71.3222V62.264L78.8582 55.376H80.9702L75.5702 60.536L81.4742 68H79.3862L74.2982 61.664ZM94.5086 62.216H83.9486C84.0446 63.528 84.5486 64.592 85.4606 65.408C86.3726 66.208 87.5246 66.608 88.9166 66.608C89.7006 66.608 90.4206 66.472 91.0766 66.2C91.7326 65.912 92.3006 65.496 92.7806 64.952L93.7406 66.056C93.1806 66.728 92.4766 67.24 91.6286 67.592C90.7966 67.944 89.8766 68.12 88.8686 68.12C87.5726 68.12 86.4206 67.848 85.4126 67.304C84.4206 66.744 83.6446 65.976 83.0846 65C82.5246 64.024 82.2446 62.92 82.2446 61.688C82.2446 60.456 82.5086 59.352 83.0366 58.376C83.5806 57.4 84.3166 56.64 85.2446 56.096C86.1886 55.552 87.2446 55.28 88.4126 55.28C89.5806 55.28 90.6286 55.552 91.5566 56.096C92.4846 56.64 93.2126 57.4 93.7406 58.376C94.2686 59.336 94.5326 60.44 94.5326 61.688L94.5086 62.216ZM88.4126 56.744C87.1966 56.744 86.1726 57.136 85.3406 57.92C84.5246 58.688 84.0606 59.696 83.9486 60.944H92.9006C92.7886 59.696 92.3166 58.688 91.4846 57.92C90.6686 57.136 89.6446 56.744 88.4126 56.744ZM108.993 62.216H98.433C98.529 63.528 99.033 64.592 99.945 65.408C100.857 66.208 102.009 66.608 103.401 66.608C104.185 66.608 104.905 66.472 105.561 66.2C106.217 65.912 106.785 65.496 107.265 64.952L108.225 66.056C107.665 66.728 106.961 67.24 106.113 67.592C105.281 67.944 104.361 68.12 103.353 68.12C102.057 68.12 100.905 67.848 99.897 67.304C98.905 66.744 98.129 65.976 97.569 65C97.009 64.024 96.729 62.92 96.729 61.688C96.729 60.456 96.993 59.352 97.521 58.376C98.065 57.4 98.801 56.64 99.729 56.096C100.673 55.552 101.729 55.28 102.897 55.28C104.065 55.28 105.113 55.552 106.041 56.096C106.969 56.64 107.697 57.4 108.225 58.376C108.753 59.336 109.017 60.44 109.017 61.688L108.993 62.216ZM102.897 56.744C101.681 56.744 100.657 57.136 99.825 57.92C99.009 58.688 98.545 59.696 98.433 60.944H107.385C107.273 59.696 106.801 58.688 105.969 57.92C105.153 57.136 104.129 56.744 102.897 56.744ZM118.989 55.28C120.173 55.28 121.245 55.552 122.205 56.096C123.165 56.624 123.917 57.376 124.461 58.352C125.005 59.328 125.277 60.44 125.277 61.688C125.277 62.952 125.005 64.072 124.461 65.048C123.917 66.024 123.165 66.784 122.205 67.328C121.261 67.856 120.189 68.12 118.989 68.12C117.965 68.12 117.037 67.912 116.205 67.496C115.389 67.064 114.717 66.44 114.189 65.624V72.656H112.485V55.376H114.117V57.872C114.629 57.04 115.301 56.4 116.133 55.952C116.981 55.504 117.933 55.28 118.989 55.28ZM118.869 66.608C119.749 66.608 120.549 66.408 121.269 66.008C121.989 65.592 122.549 65.008 122.949 64.256C123.365 63.504 123.573 62.648 123.573 61.688C123.573 60.728 123.365 59.88 122.949 59.144C122.549 58.392 121.989 57.808 121.269 57.392C120.549 56.976 119.749 56.768 118.869 56.768C117.973 56.768 117.165 56.976 116.445 57.392C115.741 57.808 115.181 58.392 114.765 59.144C114.365 59.88 114.165 60.728 114.165 61.688C114.165 62.648 114.365 63.504 114.765 64.256C115.181 65.008 115.741 65.592 116.445 66.008C117.165 66.408 117.973 66.608 118.869 66.608ZM139.743 62.216H129.183C129.279 63.528 129.783 64.592 130.695 65.408C131.607 66.208 132.759 66.608 134.151 66.608C134.935 66.608 135.655 66.472 136.311 66.2C136.967 65.912 137.535 65.496 138.015 64.952L138.975 66.056C138.415 66.728 137.711 67.24 136.863 67.592C136.031 67.944 135.111 68.12 134.103 68.12C132.807 68.12 131.655 67.848 130.647 67.304C129.655 66.744 128.879 65.976 128.319 65C127.759 64.024 127.479 62.92 127.479 61.688C127.479 60.456 127.743 59.352 128.271 58.376C128.815 57.4 129.551 56.64 130.479 56.096C131.423 55.552 132.479 55.28 133.647 55.28C134.815 55.28 135.863 55.552 136.791 56.096C137.719 56.64 138.447 57.4 138.975 58.376C139.503 59.336 139.767 60.44 139.767 61.688L139.743 62.216ZM133.647 56.744C132.431 56.744 131.407 57.136 130.575 57.92C129.759 58.688 129.295 59.696 129.183 60.944H138.135C138.023 59.696 137.551 58.688 136.719 57.92C135.903 57.136 134.879 56.744 133.647 56.744ZM144.867 57.848C145.267 57 145.859 56.36 146.643 55.928C147.443 55.496 148.427 55.28 149.595 55.28V56.936L149.187 56.912C147.859 56.912 146.819 57.32 146.067 58.136C145.315 58.952 144.939 60.096 144.939 61.568V68H143.235V55.376H144.867V57.848Z" fill="#B9FFEC"/>
</g>
<path d="M7.608 68.12C6.36 68.12 5.24 67.848 4.248 67.304C3.272 66.76 2.504 66 1.944 65.024C1.384 64.032 1.104 62.92 1.104 61.688C1.104 60.456 1.384 59.352 1.944 58.376C2.504 57.4 3.272 56.64 4.248 56.096C5.24 55.552 6.36 55.28 7.608 55.28C8.696 55.28 9.664 55.496 10.512 55.928C11.376 56.344 12.056 56.96 12.552 57.776L11.28 58.64C10.864 58.016 10.336 57.552 9.696 57.248C9.056 56.928 8.36 56.768 7.608 56.768C6.696 56.768 5.872 56.976 5.136 57.392C4.416 57.792 3.848 58.368 3.432 59.12C3.032 59.872 2.832 60.728 2.832 61.688C2.832 62.664 3.032 63.528 3.432 64.28C3.848 65.016 4.416 65.592 5.136 66.008C5.872 66.408 6.696 66.608 7.608 66.608C8.36 66.608 9.056 66.456 9.696 66.152C10.336 65.848 10.864 65.384 11.28 64.76L12.552 65.624C12.056 66.44 11.376 67.064 10.512 67.496C9.648 67.912 8.68 68.12 7.608 68.12ZM15.7119 50.192H17.4159V68H15.7119V50.192ZM27.3173 68.12C26.1013 68.12 25.0053 67.848 24.0293 67.304C23.0533 66.744 22.2853 65.976 21.7253 65C21.1653 64.024 20.8853 62.92 20.8853 61.688C20.8853 60.456 21.1653 59.352 21.7253 58.376C22.2853 57.4 23.0533 56.64 24.0293 56.096C25.0053 55.552 26.1013 55.28 27.3173 55.28C28.5333 55.28 29.6293 55.552 30.6053 56.096C31.5813 56.64 32.3413 57.4 32.8853 58.376C33.4453 59.352 33.7253 60.456 33.7253 61.688C33.7253 62.92 33.4453 64.024 32.8853 65C32.3413 65.976 31.5813 66.744 30.6053 67.304C29.6293 67.848 28.5333 68.12 27.3173 68.12ZM27.3173 66.608C28.2133 66.608 29.0133 66.408 29.7173 66.008C30.4373 65.592 30.9973 65.008 31.3973 64.256C31.7973 63.504 31.9973 62.648 31.9973 61.688C31.9973 60.728 31.7973 59.872 31.3973 59.12C30.9973 58.368 30.4373 57.792 29.7173 57.392C29.0133 56.976 28.2133 56.768 27.3173 56.768C26.4213 56.768 25.6133 56.976 24.8933 57.392C24.1893 57.792 23.6293 58.368 23.2133 59.12C22.8133 59.872 22.6133 60.728 22.6133 61.688C22.6133 62.648 22.8133 63.504 23.2133 64.256C23.6293 65.008 24.1893 65.592 24.8933 66.008C25.6133 66.408 26.4213 66.608 27.3173 66.608ZM48.5801 55.376V68H46.9481V65.696C46.5001 66.464 45.8841 67.064 45.1001 67.496C44.3161 67.912 43.4201 68.12 42.4121 68.12C40.7641 68.12 39.4601 67.664 38.5001 66.752C37.5561 65.824 37.0841 64.472 37.0841 62.696V55.376H38.7881V62.528C38.7881 63.856 39.1161 64.864 39.7721 65.552C40.4281 66.24 41.3641 66.584 42.5801 66.584C43.9081 66.584 44.9561 66.184 45.7241 65.384C46.4921 64.568 46.8761 63.44 46.8761 62V55.376H48.5801ZM64.8726 50.192V68H63.2406V65.504C62.7286 66.352 62.0486 67 61.2006 67.448C60.3686 67.896 59.4246 68.12 58.3686 68.12C57.1846 68.12 56.1126 67.848 55.1526 67.304C54.1926 66.76 53.4406 66 52.8966 65.024C52.3526 64.048 52.0806 62.936 52.0806 61.688C52.0806 60.44 52.3526 59.328 52.8966 58.352C53.4406 57.376 54.1926 56.624 55.1526 56.096C56.1126 55.552 57.1846 55.28 58.3686 55.28C59.3926 55.28 60.3126 55.496 61.1286 55.928C61.9606 56.344 62.6406 56.96 63.1686 57.776V50.192H64.8726ZM58.5126 66.608C59.3926 66.608 60.1846 66.408 60.8886 66.008C61.6086 65.592 62.1686 65.008 62.5686 64.256C62.9846 63.504 63.1926 62.648 63.1926 61.688C63.1926 60.728 62.9846 59.872 62.5686 59.12C62.1686 58.368 61.6086 57.792 60.8886 57.392C60.1846 56.976 59.3926 56.768 58.5126 56.768C57.6166 56.768 56.8086 56.976 56.0886 57.392C55.3846 57.792 54.8246 58.368 54.4086 59.12C54.0086 59.872 53.8086 60.728 53.8086 61.688C53.8086 62.648 54.0086 63.504 54.4086 64.256C54.8246 65.008 55.3846 65.592 56.0886 66.008C56.8086 66.408 57.6166 66.608 58.5126 66.608ZM74.2982 61.664L71.3222 64.4V68H69.6182V50.192H71.3222V62.264L78.8582 55.376H80.9702L75.5702 60.536L81.4742 68H79.3862L74.2982 61.664ZM94.5086 62.216H83.9486C84.0446 63.528 84.5486 64.592 85.4606 65.408C86.3726 66.208 87.5246 66.608 88.9166 66.608C89.7006 66.608 90.4206 66.472 91.0766 66.2C91.7326 65.912 92.3006 65.496 92.7806 64.952L93.7406 66.056C93.1806 66.728 92.4766 67.24 91.6286 67.592C90.7966 67.944 89.8766 68.12 88.8686 68.12C87.5726 68.12 86.4206 67.848 85.4126 67.304C84.4206 66.744 83.6446 65.976 83.0846 65C82.5246 64.024 82.2446 62.92 82.2446 61.688C82.2446 60.456 82.5086 59.352 83.0366 58.376C83.5806 57.4 84.3166 56.64 85.2446 56.096C86.1886 55.552 87.2446 55.28 88.4126 55.28C89.5806 55.28 90.6286 55.552 91.5566 56.096C92.4846 56.64 93.2126 57.4 93.7406 58.376C94.2686 59.336 94.5326 60.44 94.5326 61.688L94.5086 62.216ZM88.4126 56.744C87.1966 56.744 86.1726 57.136 85.3406 57.92C84.5246 58.688 84.0606 59.696 83.9486 60.944H92.9006C92.7886 59.696 92.3166 58.688 91.4846 57.92C90.6686 57.136 89.6446 56.744 88.4126 56.744ZM108.993 62.216H98.433C98.529 63.528 99.033 64.592 99.945 65.408C100.857 66.208 102.009 66.608 103.401 66.608C104.185 66.608 104.905 66.472 105.561 66.2C106.217 65.912 106.785 65.496 107.265 64.952L108.225 66.056C107.665 66.728 106.961 67.24 106.113 67.592C105.281 67.944 104.361 68.12 103.353 68.12C102.057 68.12 100.905 67.848 99.897 67.304C98.905 66.744 98.129 65.976 97.569 65C97.009 64.024 96.729 62.92 96.729 61.688C96.729 60.456 96.993 59.352 97.521 58.376C98.065 57.4 98.801 56.64 99.729 56.096C100.673 55.552 101.729 55.28 102.897 55.28C104.065 55.28 105.113 55.552 106.041 56.096C106.969 56.64 107.697 57.4 108.225 58.376C108.753 59.336 109.017 60.44 109.017 61.688L108.993 62.216ZM102.897 56.744C101.681 56.744 100.657 57.136 99.825 57.92C99.009 58.688 98.545 59.696 98.433 60.944H107.385C107.273 59.696 106.801 58.688 105.969 57.92C105.153 57.136 104.129 56.744 102.897 56.744ZM118.989 55.28C120.173 55.28 121.245 55.552 122.205 56.096C123.165 56.624 123.917 57.376 124.461 58.352C125.005 59.328 125.277 60.44 125.277 61.688C125.277 62.952 125.005 64.072 124.461 65.048C123.917 66.024 123.165 66.784 122.205 67.328C121.261 67.856 120.189 68.12 118.989 68.12C117.965 68.12 117.037 67.912 116.205 67.496C115.389 67.064 114.717 66.44 114.189 65.624V72.656H112.485V55.376H114.117V57.872C114.629 57.04 115.301 56.4 116.133 55.952C116.981 55.504 117.933 55.28 118.989 55.28ZM118.869 66.608C119.749 66.608 120.549 66.408 121.269 66.008C121.989 65.592 122.549 65.008 122.949 64.256C123.365 63.504 123.573 62.648 123.573 61.688C123.573 60.728 123.365 59.88 122.949 59.144C122.549 58.392 121.989 57.808 121.269 57.392C120.549 56.976 119.749 56.768 118.869 56.768C117.973 56.768 117.165 56.976 116.445 57.392C115.741 57.808 115.181 58.392 114.765 59.144C114.365 59.88 114.165 60.728 114.165 61.688C114.165 62.648 114.365 63.504 114.765 64.256C115.181 65.008 115.741 65.592 116.445 66.008C117.165 66.408 117.973 66.608 118.869 66.608ZM139.743 62.216H129.183C129.279 63.528 129.783 64.592 130.695 65.408C131.607 66.208 132.759 66.608 134.151 66.608C134.935 66.608 135.655 66.472 136.311 66.2C136.967 65.912 137.535 65.496 138.015 64.952L138.975 66.056C138.415 66.728 137.711 67.24 136.863 67.592C136.031 67.944 135.111 68.12 134.103 68.12C132.807 68.12 131.655 67.848 130.647 67.304C129.655 66.744 128.879 65.976 128.319 65C127.759 64.024 127.479 62.92 127.479 61.688C127.479 60.456 127.743 59.352 128.271 58.376C128.815 57.4 129.551 56.64 130.479 56.096C131.423 55.552 132.479 55.28 133.647 55.28C134.815 55.28 135.863 55.552 136.791 56.096C137.719 56.64 138.447 57.4 138.975 58.376C139.503 59.336 139.767 60.44 139.767 61.688L139.743 62.216ZM133.647 56.744C132.431 56.744 131.407 57.136 130.575 57.92C129.759 58.688 129.295 59.696 129.183 60.944H138.135C138.023 59.696 137.551 58.688 136.719 57.92C135.903 57.136 134.879 56.744 133.647 56.744ZM144.867 57.848C145.267 57 145.859 56.36 146.643 55.928C147.443 55.496 148.427 55.28 149.595 55.28V56.936L149.187 56.912C147.859 56.912 146.819 57.32 146.067 58.136C145.315 58.952 144.939 60.096 144.939 61.568V68H143.235V55.376H144.867V57.848Z" fill="#B9FFEC"/>
<defs>
<filter id="filter0_f" x="40.75" y="-0.25" width="58.5" height="73.5" filterUnits="userSpaceOnUse" color-interpolation-filters="sRGB">
<feFlood flood-opacity="0" result="BackgroundImageFix"/>
<feBlend mode="normal" in="SourceGraphic" in2="BackgroundImageFix" result="shape"/>
<feGaussianBlur stdDeviation="0.125" result="effect1_foregroundBlur"/>
</filter>
<filter id="filter1_f" x="0.854004" y="49.942" width="148.991" height="22.964" filterUnits="userSpaceOnUse" color-interpolation-filters="sRGB">
<feFlood flood-opacity="0" result="BackgroundImageFix"/>
<feBlend mode="normal" in="SourceGraphic" in2="BackgroundImageFix" result="shape"/>
<feGaussianBlur stdDeviation="0.125" result="effect1_foregroundBlur"/>
</filter>
<clipPath id="clip0">
<rect width="58" height="73" fill="white" transform="translate(41)"/>
</clipPath>
</defs>
</svg>
