<svg width="362" height="78" viewBox="0 0 362 78" fill="none" xmlns="http://www.w3.org/2000/svg">
    <ellipse cx="66.8017" cy="44.6429" rx="15.1983" ry="15.3571" fill="url(#paint0_linear)"/>
    <path fill-rule="evenodd" clip-rule="evenodd"
          d="M38.7118 59.7823C39.0018 59.8209 39.2933 59.8544 39.5862 59.8829V59.8834C40.3733 59.9601 41.1711 59.9995 41.9779 60C41.9825 60 41.9871 60 41.9917 60C41.9963 60 42.0009 60 42.0055 60C42.1866 59.9999 42.3672 59.9978 42.5473 59.9938L42.5415 60L66.4483 60V59.997C66.5488 59.999 66.6494 60 66.7504 60C70.994 60 74.8317 58.2434 77.59 55.4106C70.8319 51.0023 67.5143 44.7072 66.7331 34.4445L66.7272 34.4506C66.438 20.8972 55.4743 10 41.9917 10C28.3274 10 17.2503 21.1929 17.2503 35C17.2503 47.6835 26.5979 58.161 38.7118 59.7823Z"
          fill="url(#paint1_linear)"/>
    <path fill-rule="evenodd" clip-rule="evenodd"
          d="M18.7422 59.9969C8.35991 59.8115 0 51.2494 0 40.7143C0 30.0631 8.54519 21.4286 19.0862 21.4286C29.5123 21.4286 37.9859 29.8759 38.1694 40.3667L38.1724 40.3636C38.8495 51.4625 42.942 56.522 51.3592 60H19.0862H18.7392L18.7422 59.9969Z"
          fill="url(#paint2_linear)"/>
    <path class="logo-text" d="M123.736 52.944C122.04 53.936 119.928 54.432 117.4 54.432C113.656 54.432 110.616 53.248 108.28 50.88C105.976 48.512 104.824 45.52 104.824 41.904C104.856 38.352 106.008 35.36 108.28 32.928C110.584 30.496 113.72 29.28 117.688 29.28C120.056 29.28 122.072 29.728 123.736 30.624V35.712C122.136 34.688 120.312 34.176 118.264 34.176C116.024 34.176 114.216 34.88 112.84 36.288C111.464 37.696 110.76 39.568 110.728 41.904C110.792 44.208 111.48 46.064 112.792 47.472C114.136 48.88 115.944 49.584 118.216 49.584C120.2 49.584 122.04 49.04 123.736 47.952V52.944ZM134.667 54H128.907V20.064H134.667V54ZM163.312 41.76C163.312 45.44 162.272 48.464 160.192 50.832C158.144 53.2 155.264 54.384 151.552 54.384C147.872 54.384 144.992 53.232 142.912 50.928C140.864 48.624 139.84 45.68 139.84 42.096C139.84 38.384 140.912 35.328 143.056 32.928C145.2 30.496 148.032 29.28 151.552 29.28C155.296 29.28 158.192 30.464 160.24 32.832C162.288 35.168 163.312 38.144 163.312 41.76ZM145.888 41.904C145.888 44.144 146.384 46.016 147.376 47.52C148.368 49.024 149.776 49.776 151.6 49.776C153.488 49.776 154.912 49.04 155.872 47.568C156.832 46.096 157.312 44.224 157.312 41.952C157.312 39.616 156.848 37.712 155.92 36.24C154.992 34.736 153.536 33.984 151.552 33.984C149.728 33.984 148.32 34.736 147.328 36.24C146.368 37.744 145.888 39.632 145.888 41.904ZM189.156 54H183.348V50.016C182.068 52.832 179.572 54.24 175.86 54.24C173.396 54.24 171.476 53.536 170.1 52.128C168.724 50.72 168.036 48.72 168.036 46.128V29.664H173.796V44.784C173.796 46.32 174.164 47.488 174.9 48.288C175.668 49.088 176.708 49.488 178.02 49.488C179.684 49.488 180.98 48.928 181.908 47.808C182.868 46.688 183.348 44.992 183.348 42.72V29.664H189.156V54ZM200.025 41.952C200.025 44.16 200.585 45.952 201.705 47.328C202.825 48.704 204.217 49.392 205.881 49.392C207.609 49.392 209.049 48.736 210.201 47.424C211.353 46.08 211.929 44.144 211.929 41.616C211.929 39.152 211.321 37.312 210.105 36.096C208.889 34.848 207.497 34.224 205.929 34.224C204.265 34.224 202.857 34.912 201.705 36.288C200.585 37.632 200.025 39.52 200.025 41.952ZM217.689 54H211.929V50.208C210.265 52.96 207.801 54.336 204.537 54.336C201.337 54.336 198.793 53.12 196.905 50.688C195.049 48.256 194.121 45.312 194.121 41.856C194.121 38.016 195.097 34.976 197.049 32.736C199.033 30.464 201.561 29.328 204.633 29.328C207.801 29.328 210.233 30.688 211.929 33.408V20.064H217.689V54ZM228.045 54H224.301V20.256H228.045V54ZM232.989 41.232L242.877 54H238.317L228.525 41.232L238.077 29.664H242.589L232.989 41.232ZM265.123 52.752C263.235 53.744 260.931 54.24 258.211 54.24C254.531 54.24 251.555 53.12 249.283 50.88C247.043 48.608 245.923 45.616 245.923 41.904C245.923 38.032 246.931 34.976 248.947 32.736C250.963 30.496 253.555 29.376 256.723 29.376C259.763 29.376 262.179 30.352 263.971 32.304C265.763 34.256 266.659 37.024 266.659 40.608C266.659 41.632 266.579 42.576 266.419 43.44H249.811C250.099 45.84 251.011 47.68 252.547 48.96C254.083 50.24 256.099 50.88 258.595 50.88C261.315 50.88 263.491 50.32 265.123 49.2V52.752ZM256.723 32.688C254.899 32.688 253.347 33.344 252.067 34.656C250.787 35.968 250.035 37.84 249.811 40.272H262.867V39.312C262.867 37.296 262.323 35.696 261.235 34.512C260.147 33.296 258.643 32.688 256.723 32.688ZM290.202 52.752C288.314 53.744 286.01 54.24 283.29 54.24C279.61 54.24 276.634 53.12 274.362 50.88C272.122 48.608 271.002 45.616 271.002 41.904C271.002 38.032 272.01 34.976 274.026 32.736C276.042 30.496 278.634 29.376 281.802 29.376C284.842 29.376 287.258 30.352 289.05 32.304C290.842 34.256 291.738 37.024 291.738 40.608C291.738 41.632 291.658 42.576 291.498 43.44H274.89C275.178 45.84 276.09 47.68 277.626 48.96C279.162 50.24 281.178 50.88 283.674 50.88C286.394 50.88 288.57 50.32 290.202 49.2V52.752ZM281.802 32.688C279.978 32.688 278.426 33.344 277.146 34.656C275.866 35.968 275.114 37.84 274.89 40.272H287.946V39.312C287.946 37.296 287.402 35.696 286.314 34.512C285.226 33.296 283.722 32.688 281.802 32.688ZM301.264 63.456H297.52V29.664H301.264V33.36C302.96 30.64 305.472 29.28 308.8 29.28C312.032 29.28 314.56 30.464 316.384 32.832C318.24 35.168 319.168 38.096 319.168 41.616C319.168 45.36 318.192 48.432 316.24 50.832C314.32 53.2 311.808 54.384 308.704 54.384C305.504 54.384 303.024 53.024 301.264 50.304V63.456ZM301.264 41.856C301.264 44.96 301.984 47.248 303.424 48.72C304.864 50.192 306.464 50.928 308.224 50.928C310.272 50.928 311.952 50.128 313.264 48.528C314.576 46.896 315.232 44.592 315.232 41.616C315.232 38.96 314.592 36.816 313.312 35.184C312.032 33.552 310.416 32.736 308.464 32.736C306.512 32.736 304.816 33.456 303.376 34.896C301.968 36.304 301.264 38.624 301.264 41.856ZM342.514 52.752C340.626 53.744 338.322 54.24 335.602 54.24C331.922 54.24 328.946 53.12 326.674 50.88C324.434 48.608 323.314 45.616 323.314 41.904C323.314 38.032 324.322 34.976 326.338 32.736C328.354 30.496 330.946 29.376 334.114 29.376C337.154 29.376 339.57 30.352 341.362 32.304C343.154 34.256 344.05 37.024 344.05 40.608C344.05 41.632 343.97 42.576 343.81 43.44H327.202C327.49 45.84 328.402 47.68 329.938 48.96C331.474 50.24 333.49 50.88 335.986 50.88C338.706 50.88 340.882 50.32 342.514 49.2V52.752ZM334.114 32.688C332.29 32.688 330.738 33.344 329.458 34.656C328.178 35.968 327.426 37.84 327.202 40.272H340.258V39.312C340.258 37.296 339.714 35.696 338.626 34.512C337.538 33.296 336.034 32.688 334.114 32.688ZM353.576 54H349.784L349.832 29.664H353.576V33.936C354.856 30.928 357.064 29.424 360.2 29.424C360.776 29.424 361.224 29.456 361.544 29.52V33.264C360.872 33.04 360.184 32.928 359.48 32.928C357.784 32.928 356.376 33.712 355.256 35.28C354.136 36.848 353.576 38.656 353.576 40.704V54Z"
          fill="currentColor"/>
    <defs>
        <linearGradient id="paint0_linear" x1="81.2139" y1="41.9951" x2="64.1537" y2="46.9303"
                        gradientUnits="userSpaceOnUse">
            <stop stop-color="#1BA1FE"/>
            <stop offset="1" stop-color="#037CCF"/>
        </linearGradient>
        <linearGradient id="paint1_linear" x1="30.0432" y1="53.5714" x2="57.6352" y2="15.2712"
                        gradientUnits="userSpaceOnUse">
            <stop stop-color="#1BA1FE"/>
            <stop offset="1" stop-color="#94F9FF"/>
        </linearGradient>
        <linearGradient id="paint2_linear" x1="9.5431" y1="57.1429" x2="33.1359" y2="28.0851"
                        gradientUnits="userSpaceOnUse">
            <stop stop-color="#B5E9FF"/>
            <stop offset="1" stop-color="#E6FFFF"/>
        </linearGradient>
    </defs>
</svg>
