<svg width="80" height="48" viewBox="0 0 80 48" fill="none" xmlns="http://www.w3.org/2000/svg">
<ellipse cx="65.1724" cy="33.2571" rx="14.8276" ry="14.7429" fill="url(#paint0_linear)"/>
<path fill-rule="evenodd" clip-rule="evenodd" d="M37.7676 47.791C38.0505 47.828 38.3349 47.8602 38.6207 47.8876V47.888C39.3884 47.9617 40.1667 47.9996 40.9538 48C40.9584 48 40.963 48 40.9676 48C40.9721 48 40.9767 48 40.9813 48C41.1579 47.9999 41.334 47.9979 41.5096 47.9941L41.5039 48L64.8276 48V47.9971C64.9256 47.999 65.0238 48 65.1223 48C69.2624 48 73.0065 46.3137 75.6975 43.5941C69.1042 39.3622 65.8676 33.3189 65.1054 23.4667L65.0998 23.4725C64.8176 10.4613 54.1213 0 40.9676 0C27.6365 0 16.8296 10.7452 16.8296 24C16.8296 36.1762 25.9492 46.2345 37.7676 47.791Z" fill="url(#paint1_linear)"/>
<path fill-rule="evenodd" clip-rule="evenodd" d="M18.2851 47.9971C8.15603 47.8191 0 39.5994 0 29.4857C0 19.2606 8.33677 10.9714 18.6207 10.9714C28.7925 10.9714 37.0594 19.0809 37.2384 29.1521L37.2414 29.1491C37.902 39.804 41.8947 44.6611 50.1066 48H18.6207H18.2822L18.2851 47.9971Z" fill="url(#paint2_linear)"/>
<defs>
<linearGradient id="paint0_linear" x1="79.233" y1="30.7153" x2="62.631" y2="35.5961" gradientUnits="userSpaceOnUse">
<stop stop-color="#1BA1FE"/>
<stop offset="1" stop-color="#037CCF"/>
</linearGradient>
<linearGradient id="paint1_linear" x1="29.3104" y1="41.8286" x2="55.6608" y2="4.65723" gradientUnits="userSpaceOnUse">
<stop stop-color="#1BA1FE"/>
<stop offset="1" stop-color="#94F9FF"/>
</linearGradient>
<linearGradient id="paint2_linear" x1="9.31034" y1="45.2571" x2="31.8817" y2="17.0054" gradientUnits="userSpaceOnUse">
<stop stop-color="#B5E9FF"/>
<stop offset="1" stop-color="#E6FFFF"/>
</linearGradient>
</defs>
</svg>
